<svg width="29" height="29" viewBox="0 0 29 29" fill="none" xmlns="http://www.w3.org/2000/svg">
<path d="M14.5 13.2917C15.4559 13.2917 16.3904 13.0082 17.1853 12.4771C17.9801 11.946 18.5996 11.1911 18.9654 10.308C19.3312 9.4248 19.427 8.45297 19.2405 7.5154C19.054 6.57782 18.5936 5.71661 17.9177 5.04065C17.2417 4.3647 16.3805 3.90437 15.4429 3.71787C14.5054 3.53138 13.5335 3.62709 12.6504 3.99292C11.7672 4.35874 11.0123 4.97824 10.4812 5.77308C9.95014 6.56792 9.66667 7.50239 9.66667 8.45834C9.66667 9.74022 10.1759 10.9696 11.0823 11.876C11.9887 12.7824 13.2181 13.2917 14.5 13.2917Z" fill="#999999"/>
<path d="M21.75 25.3757C22.0705 25.3757 22.3778 25.2483 22.6044 25.0217C22.831 24.7951 22.9583 24.4878 22.9583 24.1673C22.9583 21.924 22.0672 19.7726 20.4809 18.1864C18.8947 16.6001 16.7433 15.709 14.5 15.709C12.2567 15.709 10.1053 16.6001 8.51906 18.1864C6.93281 19.7726 6.04167 21.924 6.04167 24.1673C6.04167 24.4878 6.16898 24.7951 6.39558 25.0217C6.62219 25.2483 6.92954 25.3757 7.25001 25.3757H21.75Z" fill="#999999"/>
</svg>
